<?xml version="1.0" encoding="utf-8"?>
<!-- Generator: Adobe Illustrator 23.0.1, SVG Export Plug-In . SVG Version: 6.00 Build 0)  -->
<svg version="1.1" id="Layer_1" xmlns="http://www.w3.org/2000/svg" xmlns:xlink="http://www.w3.org/1999/xlink" x="0px" y="0px"
	 viewBox="0 0 480 480" style="enable-background:new 0 0 480 480;" xml:space="preserve">
<style type="text/css">
	.st0{fill:#FFB8B8;}
</style>
<g>
	<path class="st0" d="M107.6,417.9c0,16.6,13.4,30,30,30h209.1c16.6,0,30-13.4,30-30V164.7c0-16.6-13.4-30-30-30H137.6
		c-16.6,0-30,13.4-30,30V417.9z"/>
</g>
<path d="M336,128h-48V40h16c4.4,0,8-3.6,8-8V8c0-4.4-3.6-8-8-8H176c-4.4,0-8,3.6-8,8v24c0,4.4,3.6,8,8,8h16v88h-48
	c-22.1,0-40,17.9-40,40v248c0,22.1,17.9,40,40,40v16c0,4.4,3.6,8,8,8h32c4.4,0,8-3.6,8-8v-16h96v16c0,4.4,3.6,8,8,8h32
	c4.4,0,8-3.6,8-8v-16c22.1,0,40-17.9,40-40V168C376,145.9,358.1,128,336,128z M184,16h112v8H184V16z M208,40h64v88h-64V40z M176,464
	h-16v-8h16V464z M320,464h-16v-8h16V464z M360,416c0,13.3-10.7,24-24,24H144c-13.3,0-24-10.7-24-24V168c0-13.3,10.7-24,24-24h192
	c13.3,0,24,10.7,24,24V416z"/>
<path d="M240,171c-3.9,0-7.2,3.2-7.2,7.2v221.7c0,3.9,3.2,7.2,7.2,7.2s7.2-3.2,7.2-7.2V178.2C247.2,174.2,243.9,171,240,171z"/>
<path d="M297.2,185.3c-3.9,0-7.2,3.2-7.2,7.2v193.1c0,3.9,3.2,7.2,7.2,7.2s7.2-3.2,7.2-7.2V192.5
	C304.4,188.5,301.2,185.3,297.2,185.3z"/>
<path d="M182.8,185.3c-3.9,0-7.2,3.2-7.2,7.2v193.1c0,3.9,3.2,7.2,7.2,7.2c3.9,0,7.2-3.2,7.2-7.2V192.5
	C189.9,188.5,186.7,185.3,182.8,185.3z"/>
</svg>
